<?xml version="1.0" standalone="no"?>
<!DOCTYPE svg PUBLIC "-//W3C//DTD SVG 20010904//EN"
 "http://www.w3.org/TR/2001/REC-SVG-20010904/DTD/svg10.dtd">
<svg version="1.0" xmlns="http://www.w3.org/2000/svg"
 width="200.000000pt" height="200.000000pt" viewBox="0 0 200.000000 200.000000"
 preserveAspectRatio="xMidYMid meet">
<metadata>
Created by potrace 1.14, written by Peter Selinger 2001-2017
</metadata>
<g transform="translate(0.000000,200.000000) scale(0.100000,-0.100000)"
fill="#000000" stroke="none">
<path d="M925 1988 c-52 -19 -114 -67 -157 -121 -40 -52 -128 -218 -128 -244
0 -10 -11 -12 -42 -8 -83 10 -223 5 -283 -10 -239 -63 -291 -259 -134 -501 28
-44 55 -80 60 -82 14 -6 10 -38 -5 -51 -25 -21 -97 -138 -118 -193 -27 -71
-33 -148 -17 -206 26 -93 133 -169 264 -187 63 -8 173 -8 231 1 36 5 44 3 44
-9 0 -8 23 -61 51 -116 82 -165 196 -261 310 -261 66 0 157 48 214 113 42 48
145 233 145 260 0 9 42 12 157 12 139 1 165 3 214 23 68 27 130 79 155 129 26
54 27 150 2 224 -19 56 -110 210 -129 217 -13 5 -11 40 2 48 6 3 33 40 60 81
133 205 113 386 -54 467 -87 43 -229 59 -362 40 -36 -4 -45 -3 -45 9 0 30
-100 213 -143 262 -80 91 -206 135 -292 103z m162 -104 c57 -33 97 -83 149
-189 24 -50 44 -94 44 -97 0 -4 -15 -9 -32 -13 -18 -4 -81 -23 -141 -42 l-107
-35 -93 30 c-50 17 -113 36 -139 43 -27 6 -48 14 -48 17 0 3 21 49 46 101 72
148 167 228 254 214 14 -2 44 -15 67 -29z m-516 -352 l36 -2 -23 -112 c-13
-62 -24 -123 -24 -134 0 -12 -6 -24 -12 -27 -16 -6 -162 -124 -203 -164 l-30
-30 -30 41 c-75 100 -106 173 -107 253 -1 90 54 142 176 167 55 12 92 13 217
8z m1119 -17 c113 -38 153 -110 124 -223 -16 -60 -47 -121 -99 -188 l-31 -41
-65 61 c-36 33 -91 79 -121 101 -59 42 -56 36 -74 155 -5 32 -18 91 -30 132
-4 13 3 17 33 20 81 7 215 -1 263 -17z m-895 -31 c92 -25 93 -27 23 -62 -35
-18 -87 -46 -116 -63 -29 -17 -50 -25 -48 -17 3 7 12 48 21 91 18 87 8 82 120
51z m530 -51 c9 -43 18 -84 20 -90 3 -7 -33 8 -78 33 -45 25 -98 52 -117 61
l-35 16 25 10 c25 9 148 45 162 46 4 1 14 -34 23 -76z m-203 -79 c152 -76 235
-130 242 -157 3 -12 5 -109 3 -215 -2 -193 -2 -193 -27 -212 -39 -29 -187
-111 -269 -149 l-74 -34 -81 39 c-133 64 -268 147 -277 172 -9 22 -11 386 -2
408 2 7 23 25 46 40 55 37 298 163 315 164 7 0 63 -25 124 -56z m-577 -354 c0
-82 -1 -150 -3 -150 -4 0 -61 50 -116 102 l-51 46 20 23 c15 16 145 129 149
129 1 0 1 -67 1 -150z m1010 66 l70 -66 -70 -65 c-107 -101 -100 -106 -100 65
0 171 -7 166 100 66z m-1169 -194 c34 -31 86 -75 117 -97 l55 -40 11 -75 c6
-41 18 -99 25 -128 18 -66 18 -66 -124 -66 -230 0 -329 87 -283 249 21 72 109
216 131 215 4 0 34 -26 68 -58z m1332 21 c114 -147 137 -293 56 -365 -22 -19
-84 -47 -124 -56 -29 -6 -249 -7 -255 0 -2 2 2 28 10 58 14 55 18 74 30 160 7
42 12 49 85 104 43 32 96 76 116 97 21 22 41 39 45 39 4 0 21 -17 37 -37z
m-868 -330 l35 -16 -25 -9 c-37 -15 -163 -48 -167 -45 -2 2 -12 43 -22 90
l-19 86 82 -45 c44 -25 97 -52 116 -61z m479 20 c-10 -47 -21 -88 -23 -90 -5
-5 -153 35 -174 46 -9 5 14 22 66 49 44 22 95 50 113 61 19 12 35 21 36 21 0
0 -7 -39 -18 -87z m-236 -122 c45 -15 106 -34 135 -41 28 -6 52 -15 52 -18 0
-18 -93 -193 -120 -225 -37 -43 -102 -83 -147 -90 -45 -7 -122 32 -167 84 -34
40 -134 225 -125 233 2 2 45 15 96 29 50 15 106 33 125 41 47 20 60 19 151
-13z"/>
<path d="M884 1250 c-111 -16 -118 -50 -13 -69 116 -20 339 2 339 34 0 29
-205 51 -326 35z"/>
<path d="M796 1163 c-3 -3 -6 -28 -6 -53 0 -44 2 -49 33 -61 22 -10 77 -14
177 -14 100 0 155 4 178 14 31 13 32 16 32 68 0 49 -2 54 -17 48 -65 -27 -325
-32 -369 -7 -12 6 -24 8 -28 5z"/>
<path d="M792 969 l3 -53 45 -14 c59 -17 261 -17 320 1 l45 13 3 52 c3 58 2
59 -62 41 -73 -20 -220 -17 -329 7 l-28 6 3 -53z"/>
<path d="M790 831 c0 -54 11 -66 68 -78 53 -12 266 -6 307 8 38 13 40 17 43
58 4 54 -6 65 -44 50 -55 -21 -280 -18 -354 6 -18 6 -20 1 -20 -44z"/>
</g>
</svg>
